<?xml version="1.0" encoding="UTF-8"?>
<svg width="60pt" xmlns:xlink="http://www.w3.org/1999/xlink" viewBox="0 0 60 45" xmlns="http://www.w3.org/2000/svg" height="45pt" xmlns:inkscape="http://www.inkscape.org/namespaces/inkscape" version="1.1">
 <defs>
  <path d="M2.09969 8.82328 L5.21 8.82328 L5.21 10 L0.634844 10 L0.634844 2.89063 L2.09969 2.89063 L2.09969 8.82328 Z" id="GlRoboto-Bold48"/>
  <path d="M3.08594 6.09375 L4.56547 2.89063 L6.16703 2.89063 L3.83297 7.42188 L3.83297 10 L2.34375 10 L2.34375 7.42188 L0.00984375 2.89063 L1.61625 2.89063 L3.08594 6.09375 Z" id="GlRoboto-Bold61"/>
  <path d="M0.634844 10 L0.634844 2.89063 L2.82234 2.89063 C2.82234 2.89063 3.75984 2.89063 4.49953 3.31297 C4.49953 3.31297 5.23922 3.73531 5.65422 4.51422 C5.65422 4.51422 6.06937 5.29297 6.06937 6.28422 L6.06937 6.61125 C6.06937 6.61125 6.06937 7.6025 5.66156 8.37406 C5.66156 8.37406 5.25391 9.14547 4.51172 9.57031 C4.51172 9.57031 3.76953 9.99516 2.83688 10 L0.634844 10 L0.634844 10 Z M2.09969 4.07719 L2.09969 8.82328 L2.80766 8.82328 C2.80766 8.82328 3.66703 8.82328 4.12109 8.26172 C4.12109 8.26172 4.57516 7.70016 4.585 6.65531 L4.585 6.27922 C4.585 6.27922 4.585 5.19531 4.13578 4.63625 C4.13578 4.63625 3.68656 4.07719 2.82234 4.07719 L2.09969 4.07719 Z" id="GlRoboto-Bold40"/>
  <path d="M1.46969 10 L0.654375 10 L0.654375 2.84172 L1.53328 2.84172 L1.53328 5.39547 C1.53328 5.39547 2.08984 4.69719 2.95406 4.69719 C2.95406 4.69719 3.43266 4.69719 3.85984 4.89016 C3.85984 4.89016 4.28719 5.08297 4.56297 5.43219 C4.56297 5.43219 4.83891 5.78125 4.99516 6.27438 C4.99516 6.27438 5.15141 6.7675 5.15141 7.32906 C5.15141 7.32906 5.15141 8.66203 4.49219 9.38969 C4.49219 9.38969 3.83297 10.1172 2.91016 10.1172 C2.91016 10.1172 1.99219 10.1172 1.46969 9.35063 L1.46969 10 L1.46969 10 Z M1.46 7.36813 C1.46 7.36813 1.46 8.30078 1.71391 8.71578 C1.71391 8.71578 2.12891 9.39453 2.83688 9.39453 C2.83688 9.39453 3.41312 9.39453 3.83297 8.89406 C3.83297 8.89406 4.25297 8.39359 4.25297 7.40234 C4.25297 7.40234 4.25297 6.38672 3.85016 5.90328 C3.85016 5.90328 3.44734 5.41984 2.87594 5.41984 C2.87594 5.41984 2.29984 5.41984 1.87984 5.92047 C1.87984 5.92047 1.46 6.42094 1.46 7.36813 Z" id="GlArialMT69"/>
  <path d="M0.620156 11.997 L0.5225 11.1719 C0.5225 11.1719 0.810625 11.25 1.02547 11.25 C1.02547 11.25 1.31844 11.25 1.49422 11.1523 C1.49422 11.1523 1.67 11.0547 1.78219 10.8789 C1.78219 10.8789 1.86531 10.747 2.05078 10.2247 C2.05078 10.2247 2.07516 10.1514 2.12891 10.0098 L0.161094 4.81438 L1.10844 4.81438 L2.1875 7.81734 C2.1875 7.81734 2.3975 8.38859 2.56344 9.01859 C2.56344 9.01859 2.71484 8.41313 2.92484 7.83688 L4.03328 4.81438 L4.91219 4.81438 L2.93953 10.088 C2.93953 10.088 2.62203 10.9423 2.44625 11.2647 C2.44625 11.2647 2.21188 11.6992 1.90906 11.9019 C1.90906 11.9019 1.60641 12.1045 1.18656 12.1045 C1.18656 12.1045 0.932656 12.1045 0.620156 11.997 Z" id="GlArialMT92"/>
  <path d="" id="GlArialMT3"/>
  <path d="M0.771563 10 L0.771563 2.84172 L3.23734 2.84172 C3.23734 2.84172 4.07234 2.84172 4.51172 2.94437 C4.51172 2.94437 5.12703 3.08594 5.56156 3.45703 C5.56156 3.45703 6.12797 3.93547 6.40875 4.68016 C6.40875 4.68016 6.68953 5.42484 6.68953 6.38187 C6.68953 6.38187 6.68953 7.19719 6.49906 7.82719 C6.49906 7.82719 6.30859 8.45703 6.01078 8.86969 C6.01078 8.86969 5.71297 9.28219 5.35891 9.51906 C5.35891 9.51906 5.00484 9.75578 4.50438 9.87797 C4.50438 9.87797 4.00391 10 3.35453 10 L0.771563 10 L0.771563 10 Z M1.71875 9.15531 L3.24703 9.15531 C3.24703 9.15531 3.95516 9.15531 4.35797 9.02344 C4.35797 9.02344 4.76078 8.89156 5 8.65234 C5 8.65234 5.33688 8.31547 5.52484 7.74656 C5.52484 7.74656 5.71297 7.17766 5.71297 6.36719 C5.71297 6.36719 5.71297 5.24406 5.34422 4.64109 C5.34422 4.64109 4.97562 4.03812 4.44828 3.83297 C4.44828 3.83297 4.06734 3.68656 3.22266 3.68656 L1.71875 3.68656 L1.71875 9.15531 Z" id="GlArialMT39"/>
  <path d="M0.664063 3.8525 L0.664063 2.84172 L1.54297 2.84172 L1.54297 3.8525 L0.664063 3.8525 L0.664063 3.8525 Z M0.664063 10 L0.664063 4.81438 L1.54297 4.81438 L1.54297 10 L0.664063 10 Z" id="GlArialMT76"/>
  <path d="M0.307656 8.45219 L1.17672 8.31547 C1.17672 8.31547 1.25 8.83781 1.58438 9.11625 C1.58438 9.11625 1.91891 9.39453 2.51953 9.39453 C2.51953 9.39453 3.125 9.39453 3.41797 9.14797 C3.41797 9.14797 3.71094 8.90141 3.71094 8.56938 C3.71094 8.56938 3.71094 8.27141 3.45219 8.10063 C3.45219 8.10063 3.27156 7.98344 2.55375 7.80266 C2.55375 7.80266 1.58688 7.55859 1.21328 7.38047 C1.21328 7.38047 0.839844 7.20219 0.646875 6.88719 C0.646875 6.88719 0.454063 6.57219 0.454063 6.19141 C0.454063 6.19141 0.454063 5.84469 0.612812 5.54937 C0.612812 5.54937 0.771563 5.25391 1.045 5.05859 C1.045 5.05859 1.25 4.90719 1.60391 4.80219 C1.60391 4.80219 1.95797 4.69719 2.36328 4.69719 C2.36328 4.69719 2.97359 4.69719 3.435 4.87297 C3.435 4.87297 3.89656 5.04875 4.11625 5.34906 C4.11625 5.34906 4.33594 5.64938 4.41891 6.15234 L3.55953 6.26953 C3.55953 6.26953 3.50094 5.86906 3.22016 5.64453 C3.22016 5.64453 2.93953 5.41984 2.42672 5.41984 C2.42672 5.41984 1.82125 5.41984 1.5625 5.62016 C1.5625 5.62016 1.30375 5.82031 1.30375 6.08891 C1.30375 6.08891 1.30375 6.25969 1.41109 6.39641 C1.41109 6.39641 1.51859 6.53812 1.74812 6.63078 C1.74812 6.63078 1.87984 6.67969 2.52438 6.85547 C2.52438 6.85547 3.45703 7.10453 3.82563 7.26328 C3.82563 7.26328 4.19437 7.42188 4.40422 7.72469 C4.40422 7.72469 4.61422 8.02734 4.61422 8.47656 C4.61422 8.47656 4.61422 8.91594 4.35781 9.30422 C4.35781 9.30422 4.10156 9.69234 3.61813 9.90484 C3.61813 9.90484 3.13484 10.1172 2.52438 10.1172 C2.52438 10.1172 1.51375 10.1172 0.983906 9.69734 C0.983906 9.69734 0.454063 9.27734 0.307656 8.45219 Z" id="GlArialMT86"/>
  <path d="M0.659219 10 L0.659219 4.81438 L1.45016 4.81438 L1.45016 5.55172 C1.45016 5.55172 2.02156 4.69719 3.10062 4.69719 C3.10062 4.69719 3.56937 4.69719 3.96234 4.86578 C3.96234 4.86578 4.35547 5.03422 4.55078 5.30766 C4.55078 5.30766 4.74609 5.58109 4.82422 5.95703 C4.82422 5.95703 4.87312 6.20109 4.87312 6.81156 L4.87312 10 L3.99422 10 L3.99422 6.84563 C3.99422 6.84563 3.99422 6.30859 3.89156 6.0425 C3.89156 6.0425 3.78906 5.77641 3.52781 5.61766 C3.52781 5.61766 3.26656 5.45891 2.915 5.45891 C2.915 5.45891 2.35359 5.45891 1.94578 5.81547 C1.94578 5.81547 1.53812 6.17188 1.53812 7.16797 L1.53812 10 L0.659219 10 Z" id="GlArialMT81"/>
  <path d="M0.498125 10.4297 L1.3525 10.5567 C1.3525 10.5567 1.40625 10.9522 1.65047 11.1328 C1.65047 11.1328 1.9775 11.377 2.54391 11.377 C2.54391 11.377 3.15437 11.377 3.48641 11.1328 C3.48641 11.1328 3.81844 10.8887 3.93562 10.4492 C3.93562 10.4492 4.00391 10.1806 3.99906 9.32125 C3.99906 9.32125 3.42281 10 2.56344 10 C2.56344 10 1.49422 10 0.908281 9.22859 C0.908281 9.22859 0.322344 8.45703 0.322344 7.37797 C0.322344 7.37797 0.322344 6.63578 0.590781 6.00828 C0.590781 6.00828 0.859375 5.38078 1.36953 5.03906 C1.36953 5.03906 1.87984 4.69719 2.56844 4.69719 C2.56844 4.69719 3.48641 4.69719 4.08203 5.43938 L4.08203 4.81438 L4.89266 4.81438 L4.89266 9.29688 C4.89266 9.29688 4.89266 10.5078 4.64594 11.0131 C4.64594 11.0131 4.39938 11.5186 3.86469 11.8116 C3.86469 11.8116 3.33016 12.1045 2.54891 12.1045 C2.54891 12.1045 1.62109 12.1045 1.04984 11.687 C1.04984 11.687 0.478594 11.2695 0.498125 10.4297 L0.498125 10.4297 Z M1.22562 7.31438 C1.22562 7.31438 1.22562 8.335 1.63078 8.80375 C1.63078 8.80375 2.03609 9.2725 2.64656 9.2725 C2.64656 9.2725 3.25203 9.2725 3.66219 8.80625 C3.66219 8.80625 4.07234 8.33984 4.07234 7.34375 C4.07234 7.34375 4.07234 6.39156 3.64984 5.90828 C3.64984 5.90828 3.2275 5.42484 2.63187 5.42484 C2.63187 5.42484 2.04594 5.42484 1.63578 5.90094 C1.63578 5.90094 1.22562 6.37688 1.22562 7.31438 Z" id="GlArialMT74"/>
 </defs>
 <g id="Background" inkscape:groupmode="layer" inkscape:label="Background">
  <g transform="translate(4.41991, 6.37289)">
   <use style="fill:#ffffff;stroke:none;" transform="matrix(2.99 0 0 2.6 0 -7.51563)" xlink:href="#GlRoboto-Bold48"/>
   <use style="fill:#ffffff;stroke:none;" transform="matrix(2.99 0 0 2.6 12.19 -7.51563)" xlink:href="#GlRoboto-Bold61"/>
   <use style="fill:#ffffff;stroke:none;" transform="matrix(2.99 0 0 2.6 30.705 -7.51563)" xlink:href="#GlRoboto-Bold40"/>
   <path style="fill:none; stroke:none;" d="M0 0 L57.4684 0 L57.4684 26.8901 L0 26.8901 L0 0 Z"/>
  </g>
  <g transform="translate(5.59685, 29.0386)">
   <use style="fill:#ffffff;stroke:none;" transform="matrix(1.0479 0 0 1.05 0 -2.98389)" xlink:href="#GlArialMT69"/>
   <use style="fill:#ffffff;stroke:none;" transform="matrix(1.0479 0 0 1.05 5.7884 -2.98389)" xlink:href="#GlArialMT92"/>
   <use style="fill:#ffffff;stroke:none;" transform="matrix(1.0479 0 0 1.05 11.0778 -2.98389)" xlink:href="#GlArialMT3"/>
   <use style="fill:#ffffff;stroke:none;" transform="matrix(1.0479 0 0 1.05 13.972 -2.98389)" xlink:href="#GlArialMT39"/>
   <use style="fill:#ffffff;stroke:none;" transform="matrix(1.0479 0 0 1.05 21.5568 -2.98389)" xlink:href="#GlArialMT76"/>
   <use style="fill:#ffffff;stroke:none;" transform="matrix(1.0479 0 0 1.05 23.8522 -2.98389)" xlink:href="#GlArialMT86"/>
   <use style="fill:#ffffff;stroke:none;" transform="matrix(1.0479 0 0 1.05 29.1416 -2.98389)" xlink:href="#GlArialMT86"/>
   <use style="fill:#ffffff;stroke:none;" transform="matrix(1.0479 0 0 1.05 34.431 -2.98389)" xlink:href="#GlArialMT76"/>
   <use style="fill:#ffffff;stroke:none;" transform="matrix(1.0479 0 0 1.05 36.7264 -2.98389)" xlink:href="#GlArialMT81"/>
   <use style="fill:#ffffff;stroke:none;" transform="matrix(1.0479 0 0 1.05 42.5148 -2.98389)" xlink:href="#GlArialMT74"/>
   <path style="fill:none; stroke:none;" d="M0 0 L57.0707 0 L57.0707 10.8364 L0 10.8364 L0 0 Z"/>
  </g>
 </g>
</svg>
